<?xml version="1.0" encoding="UTF-8" standalone="no"?>
<svg
   xmlns:dc="http://purl.org/dc/elements/1.1/"
   xmlns:cc="http://creativecommons.org/ns#"
   xmlns:rdf="http://www.w3.org/1999/02/22-rdf-syntax-ns#"
   xmlns:svg="http://www.w3.org/2000/svg"
   xmlns="http://www.w3.org/2000/svg"
   xmlns:sodipodi="http://sodipodi.sourceforge.net/DTD/sodipodi-0.dtd"
   xmlns:inkscape="http://www.inkscape.org/namespaces/inkscape"
   id="svg2"
   height="222pt"
   width="300pt"
   version="1.0"
   preserveAspectRatio="xMidYMid meet"
   viewBox="0 0 300.000000 222.000000"
   inkscape:version="0.91 r13725"
   sodipodi:docname="beach.svg">
  <defs
     id="defs153" />
  <sodipodi:namedview
     pagecolor="#ffffff"
     bordercolor="#666666"
     borderopacity="1"
     objecttolerance="10"
     gridtolerance="10"
     guidetolerance="10"
     inkscape:pageopacity="0"
     inkscape:pageshadow="2"
     inkscape:window-width="1582"
     inkscape:window-height="761"
     id="namedview151"
     showgrid="false"
     inkscape:zoom="2.4054371"
     inkscape:cx="210.46095"
     inkscape:cy="124.22169"
     inkscape:window-x="0"
     inkscape:window-y="27"
     inkscape:window-maximized="0"
     inkscape:current-layer="svg2" />
  <metadata
     id="metadata4">Created by potrace 1.10, written by Peter Selinger 2001-2011
  <rdf:RDF>
  <cc:Work
     rdf:about="">
    <dc:format>image/svg+xml</dc:format>
    <dc:type
       rdf:resource="http://purl.org/dc/dcmitype/StillImage" />
  </cc:Work>
</rdf:RDF>
</metadata>
  <path
     id="path120"
     d="m273 82c-8.5 0.3-15 0.7-14.5 0.9 0.6 0.2 1.8 0.2 2.9 0.1 1.2-0.1 1.6 0.2 1 1.1-0.5 0.9-0.2 1 0.9 0.6 0.9-0.3 2.7-0.2 3.9 0.3 2.1 0.8 2.2 0.9 0.3 1.1-1.1 0.1-2.6 0.1-3.2 0-1.8-0.3-1.6 1.4 0.4 3 1.1 1 1.4 1 0.9 0.1-0.5-0.8 0.1-1.2 1.8-1.2 1.6 0 2.6-0.6 2.6-1.4 0-1 1.2-1.3 4.7-1 5.6 0.4 8.1-0.9 3.3-1.7-2.6-0.5-1.8-0.6 3-0.7 3.6 0 7 0.4 7.7 0.9 0.6 0.6 1.4 0.6 1.7 0.1s2.5-0.7 4.9-0.6c3.2 0.2 4.4-0.1 4.4-1.2 0-0.8-0.7-1.4-1.4-1.4-0.9 0-1.1 0.5-0.7 1.2 0.5 0.9 0.2 0.9-0.9-0.1-1.3-1-1.7-1-1.7-0.1 0 1-0.4 1-1.6-0.1-1.3-1-1.7-1-2.5 0.2-0.6 0.9-1.2 1-1.6 0.4-0.5-0.6-6.5-0.8-16.3-0.5zm-2.3 1.6c-0.3 0.3-1.2 0.4-1.9 0.1-0.8-0.3-0.5-0.6 0.6-0.6 1.1-0.1 1.7 0.2 1.3 0.5z" />
  <path
     id="path126"
     d="m230 83.1c-4.7 0.3-8 0.6-7.5 0.7 0.6 0.2 0.2 0.7-0.8 1.3-0.9 0.6-2.6 0.8-3.6 0.4-1.1-0.3-2.2-0.2-2.5 0.4-0.6 0.9-10.2 2.7-12.1 2.2s-20.6 0.8-21.4 1.5c-0.2 0.1 8 0.3 18.1 0.3s19.2 0.3 20.1 0.7c1 0.3 1.7 0.1 1.7-0.5s1.5-1.1 3.3-1.2c1.7 0 4.1-0.5 5.2-1 1.5-0.7 1.2-0.8-1.5-0.4-7.1 1.1-15.6 1.5-13 0.6 1.4-0.5 3.7-0.9 5.3-1 1.5-0.1 2.7-0.7 2.7-1.4 0-0.9 2.5-1.2 8.9-1.2 4.9 0 9.3 0.3 9.7 0.7 0.4 0.5-0.4 0.8-1.9 0.8-1.4 0-2.8 0.4-3.1 0.8-0.9 1.5 5.3 0 6.6-1.6 1-1.2 1-1.4 0.1-0.8-0.7 0.4-1.3 0.2-1.3-0.3 0-1.3 1.7-1.4 2.4-0.2 0.4 0.5 1.4 0.8 2.4 0.6 0.9-0.2 2.7-0.4 4-0.4 1.2-0.1 2.2-0.5 2.2-1 0-1-9.9-1-24 0z" />
  <path
     id="path134"
     d="m289.8 85.8c-3 0.4-3.8 2.6-1.2 3.6s3 0.6 0.9-1.1c-2-1.5-2-1.5 0.4-1 1.3 0.3 3.3 0.2 4.5-0.3 1.3-0.4 2.8-0.5 3.5 0 0.9 0.5 0.5 1.1-1.5 1.8-1.6 0.6-2.3 1.1-1.6 1.1 2 0.1 5.2-1.8 5.2-3.2 0-1.2-4.9-1.7-10.2-0.9z" />
  <path
     id="path136"
     d="m151.5 88c-1.6 0.7-1.7 0.9-0.3 0.9 0.9 0.1 2-0.4 2.3-0.9 0.7-1.1 0.7-1.1-2 0z" />
  <path
     id="path138"
     d="m233.3 88.5c0 0.9 2.6 1.2 8.3 1.3 7.3 0 8.1-0.2 6.8-1.5-1.1-1.2-2.1-1.3-4.6-0.4-3.7 1.3-9.1 1.5-8.4 0.3 0.3-0.5-0.1-0.9-0.8-0.9s-1.3 0.6-1.3 1.2z" />
  <path
     id="path140"
     d="m272.5 88c0.3 0.5 1.3 1 2.1 1s1.4-0.5 1.4-1c0-0.6-0.9-1-2.1-1-1.1 0-1.7 0.4-1.4 1z" />
  <path
     id="path142"
     d="m278.3 87.6c1.1 1.2 7.7 1.6 7.7 0.5 0-0.6-1.8-1.1-4.2-1.1-2.3 0-3.9 0.3-3.5 0.6z" />
  <path
     id="path144"
     d="m116.5 88.7c-8 0.5-11.5 2.3-4.3 2.3 2.5 0 6.1 0.2 7.9 0.5 2.7 0.4 2.9 0.3 0.9-0.3-2.1-0.7-1.7-0.9 2.9-1.6 6.2-0.8 7.8-0.2 3 1.3l-3.4 1.1 3.6-0.5c2-0.3 6.9-0.6 10.8-0.6 4.1-0.1 7.1-0.5 7.1-1.1s0.7-0.8 1.5-0.5c0.8 0.4 1.7 0.2 2-0.3 0.4-0.6-0.8-1-2.5-1s-2.9 0.4-2.6 0.9c0.3 0.4-2.3 0.8-5.8 0.7s-6.2-0.4-5.9-0.9c0.4-0.7-0.8-0.7-15.2 0z" />
  <path
     id="path146"
     d="m152.5 90c-1.3 0.5-1.4 0.9-0.5 0.9 0.8 0 2.4-0.4 3.5-0.9 1.3-0.5 1.4-0.9 0.5-0.9-0.8 0-2.4 0.4-3.5 0.9z" />
  <path
     id="path148"
     d="m160.3 89.7c0.9 0.2 2.3 0.2 3 0 0.6-0.3-0.1-0.5-1.8-0.5-1.6 0-2.2 0.2-1.2 0.5z" />
  <path
     id="path150"
     d="m173.3 89.7c1.5 0.2 3.9 0.2 5.5 0 1.5-0.2 0.2-0.4-2.8-0.4s-4.3 0.2-2.7 0.4z" />
  <path
     id="path152"
     d="m268.2 91.5c-0.7 0.8-0.8 1.5-0.3 1.5s1.3-0.5 1.6-1c0.4-0.6 1.4-0.8 2.3-0.6 1 0.3 2.4 0.1 3.2-0.4 1.1-0.7 0.6-1-2-0.9-1.9 0-4.1 0.6-4.8 1.4z" />
  <path
     id="path154"
     d="m282 90.9c0 1.4 2.9 2.1 3.6 0.9 0.4-0.7 0.3-0.8-0.4-0.4s-1.2 0.2-1.2-0.3c0-0.6-0.4-1.1-1-1.1-0.5 0-1 0.4-1 0.9z" />
  <path
     id="path156"
     d="m102.3 91.7c7.4 0.8 3.5 2.3-6.5 2.5-7.7 0.1-5.4 0.3 8.7 0.9 10.5 0.4 20.6 1 22.5 1.3 13.3 2.1 16.6 2.3 19.5 1.2 2.7-1.1 1.8-1.3-9-1.9-6.6-0.4-13.3-0.9-15-1.1-1.6-0.2-5.8-0.7-9.2-1.1-3.5-0.4-6.3-1.1-6.3-1.6s-1.9-0.8-4.2-0.7l-4.3 0.1 3.8 0.4z" />
  <path
     id="path158"
     d="m162.2 91.8c-0.4 0.1-6.4 0.6-13.3 1.1-10.7 0.7-8.5 0.8 15.9 0.8 15.5 0 28.2-0.3 28.2-0.7s-4.4-0.6-9.7-0.5c-5.4 0.1-10.2 0-10.7-0.3-0.9-0.5-9.1-0.9-10.4-0.4z" />
  <path
     id="path160"
     d="m211.5 92c-1.1 0.5-1.5 0.9-1 0.9 0.6 0.1 0.3 0.5-0.4 1-1 0.7 0 0.9 3.2 0.8 2.6-0.1 4.7-0.5 4.7-1 0-0.4-0.3-0.6-0.7-0.6-2.3 0.4-4.3-0.2-3.8-1.1 0.7-1.1 0.7-1.1-2 0z" />
  <path
     id="path162"
     d="m229.3 91.7c-2.1 0.8-1.5 2.2 0.7 1.6 1.1-0.3 2-0.9 2-1.4 0-1-0.8-1-2.7-0.2z" />
  <path
     id="path164"
     d="m233 92.1c0 0.5 0.5 0.7 1 0.4 0.6-0.3 1-0.8 1-1.1 0-0.2-0.4-0.4-1-0.4-0.5 0-1 0.5-1 1.1z" />
  <path
     id="path166"
     d="m236.8 91.7c0.7 0.3 1.6 0.2 1.9-0.1 0.4-0.3-0.2-0.6-1.3-0.5-1.1 0-1.4 0.3-0.6 0.6z" />
  <path
     id="path168"
     d="m241.4 91.9c1.8 0.7 1.8 0.8-0.5 2.4-1.3 0.9-2 1.7-1.5 1.7 1.4 0 5.6-3.7 4.9-4.4-0.3-0.3-1.6-0.6-2.7-0.5-2 0-2 0.1-0.2 0.8z" />
  <path
     id="path172"
     d="m194.6 92.9c-0.4 0.5 0.3 0.7 1.4 0.4 2.3-0.6 2.6-1.3 0.6-1.3-0.8 0-1.7 0.4-2 0.9z" />
  <path
     id="path174"
     d="m200.1 93.2c-3.1 1.1-2.6 1.4 1.7 1 6.2-0.6 6.8-0.8 3.6-1.3-1.8-0.3-4.1-0.2-5.3 0.3z" />
  <path
     id="path176"
     d="m220.8 92.7c0.7 0.3 1.6 0.2 1.9-0.1 0.4-0.3-0.2-0.6-1.3-0.5-1.1 0-1.4 0.3-0.6 0.6z" />
  <path
     id="path178"
     d="m271.2 93.4c-2.4 0.6-4.1 1.4-3.7 1.7 0.3 0.4 2.6 0.1 4.9-0.6 2.9-0.9 5.6-1.1 8.1-0.5 2.1 0.5 3.4 0.5 2.9 0-1.7-1.5-7.9-1.8-12.2-0.6z" />
  <path
     id="path182"
     d="m156 96.1c-1.7 0.6-0.1 0.7 4.8 0.4 3.9-0.3 7.2-0.1 7.2 0.3 0 0.9 6.2 3.8 10.8 5.1 2.1 0.6 2.9 0.5 2.9-0.4 0-0.7-0.8-1-1.8-0.8-0.9 0.3-2.6 0-3.6-0.6-1.4-1-0.5-1.1 4.8-0.9 4.6 0.3 6.3 0.1 5.6-0.7-0.6-0.6-4-0.9-8.5-0.7-5.9 0.3-7.3 0.1-6.7-0.9 0.6-0.9 0.4-1.1-0.8-0.6-0.9 0.3-1.9 0.2-2.2-0.3-0.8-1.2-9.1-1.1-12.5 0.1z" />
  <path
     id="path184"
     d="m193.8 95.7c0.7 0.3 1.6 0.2 1.9-0.1 0.4-0.3-0.2-0.6-1.3-0.5-1.1 0-1.4 0.3-0.6 0.6z" />
  <path
     id="path186"
     d="m245.5 96c1.1 0.5 3.1 0.8 4.5 0.8h2.5l-2.5-0.8c-1.4-0.4-3.4-0.8-4.5-0.8-2-0.1-2-0.1 0 0.8z" />
  <path
     id="path188"
     d="m102.3 96.7c1.5 0.2 2.7 0.9 2.7 1.4s0.8 0.9 1.8 0.8c1 0 1.2-0.3 0.4-0.6-0.6-0.2-1-0.9-0.6-1.4 0.3-0.5-1.2-0.8-3.3-0.8-3 0.2-3.2 0.3-1 0.6z" />
  <path
     id="path190"
     d="m177.3 96.7c0.9 0.2 2.3 0.2 3 0 0.6-0.3-0.1-0.5-1.8-0.5-1.6 0-2.2 0.2-1.2 0.5z" />
  <path
     id="path192"
     d="m197 96.4c0 0.2 0.9 0.6 2 0.9s2 0.1 2-0.4-0.9-0.9-2-0.9-2 0.2-2 0.4z" />
  <path
     id="path194"
     d="m203.8 96.7c0.7 0.3 1.6 0.2 1.9-0.1 0.4-0.3-0.2-0.6-1.3-0.5-1.1 0-1.4 0.3-0.6 0.6z" />
  <path
     id="path198"
     d="m212.5 99c-1 1.1-3 2.1-4.4 2.1-2.4 0.2-2.5 0.2-0.3 0.6 1.3 0.3 2.9 0 3.6-0.6s1.6-0.8 2-0.4c1 1 5.6 1.5 5.5 0.6-0.4-2.2 0.3-2.5 1.6-0.7 1.2 1.4 1.4 1.5 0.9 0.2-0.4-1.3-0.1-1.6 1.8-1.2 1.3 0.2 1.7 0.1 0.9-0.2-1.1-0.5-1.1-0.8 0-1.6 0.9-0.5 0.3-0.6-1.6-0.2-1.6 0.4-3.4 1.1-3.9 1.5-1.7 1.5-4.9 1.1-4.2-0.6 0.7-2 0.3-1.9-1.9 0.5z" />
  <path
     id="path200"
     d="m293.5 98c2.2 0.4 4.7 0.4 5.5-0.1 1-0.5-0.5-0.8-4-0.8-5.5 0.1-5.5 0.1-1.5 0.9z" />
  <path
     id="path202"
     d="m147.4 99.2c-0.4 0.6-0.3 0.8 0.4 0.4 0.6-0.3 1.3-0.2 1.7 0.4 0.8 1.3 4.5 1.3 4.5 0 0-0.6 0.5-1 1.1-1 0.5 0 0.7 0.6 0.3 1.2-0.6 1-0.5 1 0.7 0.2 0.8-0.7 2.3-1.4 3.4-1.7 1.1-0.2-1-0.5-4.7-0.6-4.1-0.1-7 0.3-7.4 1.1z" />
  <path
     id="path204"
     d="m203.4 99c-0.5 0.5-3 1.2-5.4 1.5-4.4 0.6-10.1 4.2-6.6 4.2 0.9 0 1.6-0.6 1.6-1.4 0-0.9 0.8-1.1 2.5-0.7 1.5 0.4 2.5 0.2 2.5-0.4 0-1 1.3-1 5 0.1 0.8 0.2 1.2 0.2 0.8 0-1.5-0.9-0.8-2.4 1.5-3.3 1.3-0.5 1.6-0.9 0.7-0.9-0.9-0.1-2 0.3-2.6 0.9z" />
  <path
     id="path206"
     d="m229.5 98.9c-3.2 0.2-3.6 0.5-2 1.1 1.8 0.8 1.7 0.9-0.7 0.9-2.9 0.1-4.5 1.6-2.8 2.6 0.5 0.3 1 0.1 1-0.4 0-0.6 1.2-1.1 2.8-1 2.4 0 2.5 0.1 0.7 1-2 0.9-2 0.9 0 0.6 1.2-0.2 1.9-1 1.9-2-0.2-1.7 2.7-2.3 8.1-1.7 1.1 0.1 1.7-0.1 1.3-0.6-0.9-0.8-4.6-1.1-10.3-0.5z" />
  <path
     id="path208"
     d="m266.5 98.6c1.1 0.3 3.1 0.7 4.4 1 2 0.4 2.2 0.7 1 1.5-1.7 1.2 2.7 0.2 5.1-1.2 1.1-0.6 0.9-0.9-1-0.9-1.4 0-4.5-0.2-7-0.4-2.5-0.3-3.6-0.3-2.5 0z" />
  <path
     id="path210"
     d="m280.5 99c-0.3 0.5 0.1 1 0.9 1s1.8-0.5 2.1-1c0.3-0.6-0.1-1-0.9-1s-1.8 0.4-2.1 1z" />
  <path
     id="path212"
     d="m162.2 99.4c0.3 0.4 2.1 1 4 1.2 1.8 0.3 4 0.7 4.8 1 1 0.3 1.2 0.2 0.5-0.5-1.1-1.1-10.4-2.8-9.3-1.7z" />
  <path
     id="path214"
     d="m190.8 99.7c0.7 0.3 1.6 0.2 1.9-0.1 0.4-0.3-0.2-0.6-1.3-0.5-1.1 0-1.4 0.3-0.6 0.6z" />
  <path
     id="path218"
     d="m286.3 99.7c-1.3 0.2-2.3 0.9-2.3 1.4 0 1.3 1.3 1.1 3.6-0.6 1-0.8 1.7-1.4 1.4-1.3-0.3 0-1.5 0.3-2.7 0.5z" />
  <path
     id="path220"
     d="m108.8 100.7c0.6 0.2 1.8 0.2 2.5 0 0.6-0.3 0.1-0.5-1.3-0.5s-1.9 0.2-1.2 0.5z" />
  <path
     id="path222"
     d="m114 101.6c0.8 0.3 2.2 0.8 3 1.1 1.2 0.4 1.2 0.7-0.4 1.9-1.9 1.3-1.9 1.4 0.7 1.4 1.5 0 2.7-0.5 2.7-1 0-0.6 0.8-1 1.7-1 3.3 0-0.2-1.8-4.7-2.4-2.5-0.3-3.8-0.3-3 0z" />
  <path
     id="path224"
     d="m142.5 101.9c0.6 0.5 3.1 1.2 5.7 1.5 2.5 0.3 5.8 1 7.1 1.5 1.4 0.5 2.8 0.7 3.1 0.4 0.3-0.4 0.6-0.1 0.6 0.6s0.4 1 0.9 0.6c0.5-0.3 2.1 0.5 3.4 1.9 2.2 2.2 9.9 4.6 14.7 4.6 1 0 2.2 0.5 2.5 1.1 0.4 0.6 1.3 0.8 2 0.5 0.7-0.2 2.4 0.2 3.9 0.9 1.4 0.8 2.6 1.2 2.6 1s1.5 0.1 3.3 0.6c3.8 1.2 5.4 1.6 9.8 2.3 7.5 1.3 9.4 1.8 10.6 2.7 0.7 0.6 1.7 0.8 2.2 0.5 0.5-0.4 1.2-0.2 1.5 0.2 0.3 0.5 3.2 1.5 6.5 2.2 3.8 0.8 6.8 2.1 8.2 3.6 1.2 1.3 2.8 2.4 3.4 2.4s1.6 0.5 2.3 1.2c1.5 1.5 7.2 2.1 7.2 0.8 0-1-1.5-1.9-4.2-2.4-2.4-0.5-8.6-3.5-9-4.4-0.5-1.3-15.5-6-27.8-8.7-6.3-1.4-13.3-3.1-15.5-4-2.2-0.8-7.8-2.1-12.3-2.9-6.2-1-9.1-2-11-3.9-2.6-2.3-4.2-2.8-19.7-5.3-1.9-0.3-2.6-0.1-2 0.5z" />
  <path
     id="path226"
     d="m185.5 102c-3 0.8-3 0.8 0.8 0.9 2.3 0.1 3.6-0.3 3.2-0.9-0.3-0.6-0.7-0.9-0.8-0.9-0.1 0.1-1.5 0.5-3.2 0.9z" />
  <path
     id="path228"
     d="m234.5 102.1c-0.4 0.6-0.4 1.3 0 1.7s1 0.2 1.2-0.4c0.2-0.7 1.2-1 2.3-0.7 1 0.3 2.7 0 3.7-0.6 1.5-0.9 1.1-1-2.4-1.1-2.3 0-4.5 0.5-4.8 1.1z" />
  <path
     id="path230"
     d="m179.6 104.3c0.3 1 0.9 1.5 1.2 1.2s0-1.1-0.7-1.8c-1-0.9-1.1-0.8-0.5 0.6z" />
  <path
     id="path232"
     d="m206.6 103.8c-0.2 0.4 1.1 0.6 3 0.4s3.4-0.6 3.4-0.8c0-0.8-5.9-0.4-6.4 0.4z" />
  <path
     id="path234"
     d="m215.6 104.5c-0.4 1.1-1.2 1.5-2.3 1.1-1-0.4-1.4-0.4-1 0 1.1 1.2 15.7 1.1 16.4 0 0.4-0.5-0.1-0.7-1-0.3-1 0.4-2.7 0.3-4-0.2s-3-0.5-3.9 0c-1.2 0.7-1.9 0.5-2.6-0.7-0.8-1.5-1-1.5-1.6 0.1z" />
  <path
     id="path236"
     d="m275.5 104c2.2 0.4 4.7 0.4 5.5-0.1 1-0.5-0.5-0.8-4-0.8-5.5 0.1-5.5 0.1-1.5 0.9z" />
  <path
     id="path238"
     d="m284.8 103.7c1.2 0.2 3 0.2 4 0 0.9-0.3-0.1-0.5-2.3-0.4-2.2 0-3 0.2-1.7 0.4z" />
  <path
     id="path240"
     d="m292.3 104.4c0.2 0.6 1.4 1 2.6 0.8s2.9 0.2 3.8 1c1.4 1.1 1.5 1.1 1.1-0.2-0.2-0.8-2.1-1.8-4.2-2.1-2.4-0.4-3.5-0.2-3.3 0.5z" />
  <path
     id="path244"
     d="m198.3 104.7c0.9 0.2 2.5 0.2 3.5 0 0.9-0.3 0.1-0.5-1.8-0.5s-2.7 0.2-1.7 0.5z" />
  <path
     id="path246"
     d="m234 104.9c-2.4 0.7-2.4 0.7 0.9 1.4 1.9 0.4 3.6 0.5 3.9 0.2s-0.3-0.6-1.4-0.6c-1.2-0.1-0.7-0.4 1.1-0.9 2.7-0.7 2.7-0.8 0.5-0.8-1.4 0-3.6 0.3-5 0.7z" />
  <path
     id="path252"
     d="m280.5 106c0.4 0.6 1.1 0.8 1.6 0.5 1.4-0.9 1.1-1.5-0.7-1.5-0.8 0-1.2 0.5-0.9 1z" />
  <path
     id="path254"
     d="m201.5 106.9c-4.2 0.9-3.4 2.4 1.9 3.8 2.5 0.6 4.9 1.3 5.3 1.6s2.2-0.1 3.8-0.8c2.9-1.2 2.7-1.2-3.1-1.2-7.6 0-9.8-1.1-5.8-2.9 3.2-1.4 2.5-1.5-2.1-0.5z" />
  <path
     id="path256"
     d="m207.8 106.7c0.6 0.2 1.8 0.2 2.5 0 0.6-0.3 0.1-0.5-1.3-0.5s-1.9 0.2-1.2 0.5z" />
  <path
     id="path262"
     d="m286.4 106.8c0.2 0.4 2.1 0.9 4.1 1 2.3 0.2 3.4-0.1 3-0.8-0.3-0.5-2.2-1-4.1-1s-3.3 0.4-3 0.8z" />
  <path
     id="path264"
     d="m121 107.4c0 0.2 0.9 0.6 2 0.9s2 0.1 2-0.4-0.9-0.9-2-0.9-2 0.2-2 0.4z" />
  <path
     id="path266"
     d="m217 108.1c0 0.4 1.1 0.9 2.3 1.1 1.3 0.3 2.4 0 2.4-0.6s-1.1-1.1-2.4-1.1c-1.2 0-2.3 0.3-2.3 0.6z" />
  <path
     id="path268"
     d="m226.1 108.1c-5.6 1.7-2.8 2 3.5 0.5 3.9-0.9 4.9-1.4 2.9-1.4-1.6 0-4.5 0.4-6.4 0.9z" />
  <path
     id="path272"
     d="m273.8 107.7c0.6 0.2 1.8 0.2 2.5 0 0.6-0.3 0.1-0.5-1.3-0.5s-1.9 0.2-1.2 0.5z" />
  <path
     id="path274"
     d="m113.5 108.4c2.9 1.3 8.7 2.4 7.8 1.5-0.5-0.5-2.7-1.2-4.9-1.4-2.1-0.3-3.4-0.3-2.9-0.1z" />
  <path
     id="path276"
     d="m129.5 109c-0.3 0.5-0.2 1 0.4 1 0.5 0 1.3-0.5 1.6-1 0.3-0.6 0.2-1-0.4-1-0.5 0-1.3 0.4-1.6 1z" />
  <path
     id="path278"
     d="m208.3 108.7c1.5 0.2 3.7 0.2 5 0 1.2-0.2 0-0.4-2.8-0.4-2.7 0-3.8 0.2-2.2 0.4z" />
  <path
     id="path280"
     d="m276 109c-2.4 0.8-2.4 0.8-0.2 0.9 1.2 0.1 2.2 0.5 2.2 0.9 0 1 9.6-0.1 10.7-1.2 0.5-0.4-1-0.5-3.2-0.2-2.9 0.5-3.4 0.4-2-0.3 1.7-0.8 1.4-1-1.5-0.9-1.9 0-4.6 0.4-6 0.8z" />
  <path
     id="path282"
     d="m134 109.4c0 0.2 0.7 0.6 1.5 1 0.8 0.3 1.5 0.1 1.5-0.4 0-0.6-0.7-1-1.5-1s-1.5 0.2-1.5 0.4z" />
  <path
     id="path284"
     d="m232.8 109.7c0.7 0.3 1.6 0.2 1.9-0.1 0.4-0.3-0.2-0.6-1.3-0.5-1.1 0-1.4 0.3-0.6 0.6z" />
  <path
     id="path286"
     d="m236.8 109.7c0.7 0.3 1.6 0.2 1.9-0.1 0.4-0.3-0.2-0.6-1.3-0.5-1.1 0-1.4 0.3-0.6 0.6z" />
  <path
     id="path290"
     d="m290 110.3c0 0.7 0.9 1.3 2 1.4s2-0.3 2-0.8c0-0.6-0.4-0.7-1-0.4-0.5 0.3-1 0.1-1-0.4 0-0.6-0.4-1.1-1-1.1-0.5 0-1 0.6-1 1.3z" />
  <path
     id="path292"
     d="m124.8 111.2c0.6 0.6 1.8 0.8 2.8 0.6 1.4-0.3 1.2-0.5-0.9-1-1.9-0.3-2.5-0.2-1.9 0.4z" />
  <path
     id="path294"
     d="m217.8 110.7c0.7 0.3 1.6 0.2 1.9-0.1 0.4-0.3-0.2-0.6-1.3-0.5-1.1 0-1.4 0.3-0.6 0.6z" />
  <path
     id="path296"
     d="m236.8 110.9c-2.6 0.4-5.1 1-5.5 1.5-0.4 0.4 1.7 0.4 4.6 0 3.9-0.5 5.2-0.4 4.7 0.4-0.4 0.8-0.2 1 0.7 0.6 1.9-0.7 3.4 1.6 1.8 2.6-0.7 0.4-2.3 0.5-3.5 0.3-1.3-0.3-2.7 0-3 0.6-0.4 0.6-1.5 1.1-2.4 1.1-1.3 0-1.4-0.2-0.4-0.9 1-0.6 0.6-1-1.4-1.5-1.8-0.5-3-0.3-3.2 0.3-0.2 0.7-1 0.8-2.2 0.1-1.2-0.6-2.1-0.7-2.5 0-0.3 0.5-1.2 0.7-2 0.3-0.8-0.3-1.5 0-1.5 0.7s-0.6 1-1.2 0.7c-0.7-0.2-2.2-0.1-3.3 0.4-1.6 0.6-1.4 0.8 1.2 0.8 1.7 0.1 3.5-0.4 3.9-1 0.4-0.8 0.9-0.7 1.5 0.2 0.6 1 0.9 1.1 0.9 0.1 0-0.6 0.5-1.2 1.1-1.2 0.5 0 0.7 0.5 0.3 1.2-0.5 0.8-0.2 0.9 1.2 0.4 4-1.7 5.7-1.9 5-0.8-0.5 0.9 0.7 1.2 4.3 1.2 2.7 0 5.3-0.5 5.6-1 0.4-0.6 1.6-0.8 2.8-0.5 1.5 0.4 1.8 0.3 0.9-0.3-1.1-0.7-1-1.1 0.5-1.6 1.5-0.6 1.3-0.9-1.5-2.3-1.7-0.8-2.9-1.9-2.6-2.4s0.4-0.8 0.2-0.8c-0.2 0.1-2.4 0.5-5 0.8z" />
  <path
     id="path302"
     d="m295.5 111c0.4 0.6 1.1 0.8 1.6 0.5 1.4-0.9 1.1-1.5-0.7-1.5-0.8 0-1.2 0.5-0.9 1z" />
  <path
     id="path304"
     d="m222.7 112.2c0.2 0.5 1.3 0.8 2.3 0.8s2.1-0.3 2.3-0.8c0.3-0.4-0.8-0.7-2.3-0.7s-2.6 0.3-2.3 0.7z" />
  <path
     id="path306"
     d="m202.8 112.7c0.7 0.3 1.6 0.2 1.9-0.1 0.4-0.3-0.2-0.6-1.3-0.5-1.1 0-1.4 0.3-0.6 0.6z" />
  <path
     id="path308"
     d="m275.5 112.8c2 0.9 2 0.9 0 1.5-1.1 0.3 3.9 0.3 11 0 7.2-0.3 13.2-0.7 13.4-0.9 0.3-0.2-4.2-0.4-10-0.3-5.7 0-11.7-0.2-13.4-0.5-2.2-0.5-2.5-0.4-1 0.2z" />
  <path
     id="path310"
     d="m213 113.4c0 0.7 7.1 1.3 7.5 0.6 0.2-0.3-1.4-0.7-3.6-0.8-2.1-0.2-3.9-0.1-3.9 0.2z" />
  <path
     id="path312"
     d="m145.5 115.6c1.8 1.8 11.5 4.7 11.5 3.4 0-0.5-1.8-1.1-4-1.5s-4.7-1.3-5.4-2.1c-0.8-0.8-2-1.4-2.6-1.4-0.7 0-0.5 0.7 0.5 1.6z" />
  <path
     id="path314"
     d="m206.5 115c-0.3 0.5-0.1 1 0.4 1 0.6 0 1.1-0.5 1.1-1 0-0.6-0.2-1-0.4-1-0.3 0-0.8 0.4-1.1 1z" />
  <path
     id="path318"
     d="m286.5 116c-2.6 0.7-2.4 0.8 2 0.9 3.6 0 4.6-0.2 3.5-0.9-0.8-0.5-1.7-0.9-2-0.9-0.3 0.1-1.8 0.5-3.5 0.9z" />
  <path
     id="path322"
     d="m275.7 117.6c0.7 0.3 0.9 1.2 0.6 2-0.3 1 0.2 1.4 1.8 1.4 1.9 0 2.1-0.2 0.9-1-1.8-1.2-1.3-1.3 7-1.2h5.5l-5-0.8c-5.4-0.9-12.7-1.1-10.8-0.4z" />
  <path
     id="path324"
     d="m293.8 117.7c-3 0.8-2 2 1.2 1.5 1.7-0.2 3-0.8 3-1.3 0-0.9-1.3-1-4.2-0.2z" />
  <path
     id="path326"
     d="m158.5 121c0.3 0.5 1.1 1 1.6 1 0.6 0 0.7-0.5 0.4-1-0.3-0.6-1.1-1-1.6-1-0.6 0-0.7 0.4-0.4 1z" />
  <path
     id="path328"
     d="m285.1 120.4c1.2 1.3 6.9 2.5 7.4 1.5 0.4-0.5-0.2-0.9-1.2-0.9s-2.9-0.3-4.3-0.7c-1.4-0.3-2.2-0.3-1.9 0.1z" />
  <path
     id="path330"
     d="m296.3 121.7c0.9 0.2 2.3 0.2 3 0 0.6-0.3-0.1-0.5-1.8-0.5-1.6 0-2.2 0.2-1.2 0.5z" />
  <path
     id="path334"
     d="m274.5 123.1c0.3 0.4 1.8 0.9 3.4 1.1 1.7 0.2 2.8 0.1 2.6-0.3-0.3-0.4-1.8-0.9-3.4-1.1-1.7-0.2-2.8-0.1-2.6 0.3z" />
  <path
     id="path336"
     d="m286 123c0 0.6 0.7 1 1.5 1s1.5-0.2 1.5-0.4-0.7-0.6-1.5-1c-0.8-0.3-1.5-0.1-1.5 0.4z" />
  <path
     id="path338"
     d="m233.8 123.7c0.7 0.3 1.6 0.2 1.9-0.1 0.4-0.3-0.2-0.6-1.3-0.5-1.1 0-1.4 0.3-0.6 0.6z" />
  <path
     id="path340"
     d="m291.5 124c-1.4 0.5-0.6 0.8 2.8 0.7 2.6 0 5-0.4 5.3-0.9 0.7-1-5.4-0.9-8.1 0.2z" />
  <path
     id="path342"
     d="m168 125.9c0 0.6 0.3 1 0.8 1 0.4-0.1 0.9 0 1.2 0.1 1.9 0.7 4.1 0.7 4.6-0.1 0.3-0.5-0.1-0.9-0.8-0.9s-2.3-0.3-3.5-0.6c-1.4-0.4-2.3-0.2-2.3 0.5z" />
  <path
     id="path344"
     d="m237 125.9c0 0.5 0.5 1.3 1 1.6 0.6 0.3 1 0.2 1-0.4 0-0.5-0.4-1.3-1-1.6-0.5-0.3-1-0.2-1 0.4z" />
  <path
     id="path346"
     d="m275.8 125.7c-1 0.2-1.8 0.9-1.8 1.5 0 0.5 0.7 0.7 1.6 0.4 1-0.4 1.3-0.2 0.8 0.6-1 1.5 8.4 0.4 9.9-1.2 1-1 0.2-1.1-3.5-0.7-2.6 0.2-4.5 0.1-4.2-0.4 0.5-0.9 0.1-1-2.8-0.2z" />
  <path
     id="path348"
     d="m290.1 127.4c-0.6 0.7-0.4 1.6 0.4 2.3s1.6 0.9 2 0.4c0.3-0.5-0.1-1.2-0.7-1.4-1.1-0.5 3.5-1.1 6.9-1 0.7 0.1 1.1-0.3 0.8-0.7-0.7-1.2-8.4-0.9-9.4 0.4z" />
  <path
     id="path350"
     d="m176.1 127.4c0.6 0.6 2 1 8.2 2.1 1.5 0.3 2.7 0.1 2.7-0.5 0-0.5-0.8-1-1.7-1-1 0-3.6-0.3-5.8-0.7-2.2-0.3-3.7-0.3-3.4 0.1z" />
  <path
     id="path352"
     d="m188.5 130c0.3 0.5 1.2 0.7 2 0.3 2.1-0.7 1.9-1.3-0.6-1.3-1.1 0-1.8 0.4-1.4 1z" />
  <path
     id="path354"
     d="m193 130c0 0.4 0.9 1 2 1.3s2 0.2 2-0.3c0-0.4-0.9-1-2-1.3s-2-0.2-2 0.3z" />
  <path
     id="path356"
     d="m284.3 129.7c0.9 0.2 2.3 0.2 3 0 0.6-0.3-0.1-0.5-1.8-0.5-1.6 0-2.2 0.2-1.2 0.5z" />
  <path
     id="path358"
     d="m294.4 130.6c-1.7 1.4-1.7 1.5-0.1 1 1-0.3 2.7-0.6 3.8-0.6 1 0 1.9-0.5 1.9-1 0-1.5-3.4-1.2-5.6 0.6z" />
  <path
     id="path360"
     d="m277.8 130.7c0.6 0.2 1.8 0.2 2.5 0 0.6-0.3 0.1-0.5-1.3-0.5s-1.9 0.2-1.2 0.5z" />
  <path
     id="path362"
     d="m198.5 132c0.3 0.5 0.8 1 1.1 1 0.2 0 0.4-0.5 0.4-1 0-0.6-0.5-1-1.1-1-0.5 0-0.7 0.4-0.4 1z" />
  <path
     id="path366"
     d="m287.3 132.7c0.9 0.2 2.3 0.2 3 0 0.6-0.3-0.1-0.5-1.8-0.5-1.6 0-2.2 0.2-1.2 0.5z" />
  <path
     id="path368"
     d="m206.5 134c0.4 0.6 1.1 0.8 1.6 0.5 1.4-0.9 1.1-1.5-0.7-1.5-0.8 0-1.2 0.5-0.9 1z" />
  <path
     id="path370"
     d="m278.8 133.7c0.7 0.3 1.6 0.2 1.9-0.1 0.4-0.3-0.2-0.6-1.3-0.5-1.1 0-1.4 0.3-0.6 0.6z" />
  <path
     id="path372"
     d="m291.3 134.6c-1.7 1.8-0.2 2.5 2 0.9 1.3-0.9 1.4-1.4 0.5-1.8-0.7-0.2-1.9 0.1-2.5 0.9z" />
  <path
     id="path374"
     d="m210.8 134.7c0.7 0.3 1.6 0.2 1.9-0.1 0.4-0.3-0.2-0.6-1.3-0.5-1.1 0-1.4 0.3-0.6 0.6z" />
  <path
     id="path376"
     d="m274.8 135.7c0.6 0.2 1.8 0.2 2.5 0 0.6-0.3 0.1-0.5-1.3-0.5s-1.9 0.2-1.2 0.5z" />
  <path
     id="path378"
     d="m280.5 136.1c-1.8 0.9-1.8 0.9 0.2 0.5 1.3-0.2 2.6 0 2.9 0.5s1.2 0.9 2 0.9 1.3-0.4 0.9-0.9c-0.3-0.5 0.3-1.2 1.2-1.4 1.6-0.4 1.6-0.5 0.1-0.6-0.9 0-2 0.4-2.3 0.9-0.4 0.7-1.1 0.7-1.8 0.2-0.7-0.6-2-0.6-3.2-0.1z" />
  <path
     id="path380"
     d="m296.3 136.7c0.9 0.2 2.3 0.2 3 0 0.6-0.3-0.1-0.5-1.8-0.5-1.6 0-2.2 0.2-1.2 0.5z" />
  <path
     id="path382"
     d="m272 139c0 1.2 4.4 2.4 9.2 2.4 2 0 3.4 0.4 3.2 0.7-0.2 0.4 2.3 1 5.6 1.4s6 1.1 6 1.6 0.9 0.9 2.1 0.9c2.7 0 1.9-2.2-1.2-3.1-10.1-2.9-24.9-5.3-24.9-3.9z" />
  <path
     id="path384"
     d="m288.8 138.7c0.7 0.3 1.6 0.2 1.9-0.1 0.4-0.3-0.2-0.6-1.3-0.5-1.1 0-1.4 0.3-0.6 0.6z" />
  <path
     id="path386"
     d="m293.8 138.7c0.7 0.3 1.6 0.2 1.9-0.1 0.4-0.3-0.2-0.6-1.3-0.5-1.1 0-1.4 0.3-0.6 0.6z" />
</svg>
