<?xml version="1.0" encoding="UTF-8" standalone="no"?>
<svg
   xmlns:dc="http://purl.org/dc/elements/1.1/"
   xmlns:cc="http://creativecommons.org/ns#"
   xmlns:rdf="http://www.w3.org/1999/02/22-rdf-syntax-ns#"
   xmlns:svg="http://www.w3.org/2000/svg"
   xmlns="http://www.w3.org/2000/svg"
   xmlns:sodipodi="http://sodipodi.sourceforge.net/DTD/sodipodi-0.dtd"
   xmlns:inkscape="http://www.inkscape.org/namespaces/inkscape"
   id="svg2"
   height="222pt"
   width="300pt"
   version="1.0"
   preserveAspectRatio="xMidYMid meet"
   viewBox="0 0 300.000000 222.000000"
   inkscape:version="0.91 r13725"
   sodipodi:docname="tress.svg">
  <defs
     id="defs153" />
  <sodipodi:namedview
     pagecolor="#ffffff"
     bordercolor="#666666"
     borderopacity="1"
     objecttolerance="10"
     gridtolerance="10"
     guidetolerance="10"
     inkscape:pageopacity="0"
     inkscape:pageshadow="2"
     inkscape:window-width="1454"
     inkscape:window-height="746"
     id="namedview151"
     showgrid="false"
     inkscape:zoom="1.2027186"
     inkscape:cx="133.75182"
     inkscape:cy="120.44704"
     inkscape:window-x="0"
     inkscape:window-y="27"
     inkscape:window-maximized="0"
     inkscape:current-layer="svg2" />
  <metadata
     id="metadata4">Created by potrace 1.10, written by Peter Selinger 2001-2011
  <rdf:RDF>
  <cc:Work
     rdf:about="">
    <dc:format>image/svg+xml</dc:format>
    <dc:type
       rdf:resource="http://purl.org/dc/dcmitype/StillImage" />
  </cc:Work>
</rdf:RDF>
</metadata>
  <path
     id="path96"
     d="m10.3 60c-3.8 2.3-4.1 3-1.2 3 1.1 0 1.7-0.5 1.4-1-0.3-0.6-0.1-1 0.4-1 1.1 0 1.4 1.1 0.9 2.7-0.2 0.5-0.7 0.7-1.2 0.5s-0.6 0.4-0.3 1.3c0.4 0.8 0.2 1.5-0.3 1.5-0.6 0-1-0.7-1-1.6 0-0.8-0.5-1.2-1.1-0.9-0.6 0.4-0.8 1.3-0.5 2 0.2 0.7-0.2 1.6-1 1.9s-1.4 1.6-1.4 2.8c0 1.7 0.3 1.9 0.9 0.9 0.5-0.7 1.3-1.1 1.9-0.7 0.6 0.3 1.3 0.2 1.7-0.4 1-1.6 3.8-1.2 3.1 0.5-0.3 0.8-0.1 1.5 0.4 1.5 0.6 0 1 1.1 1 2.5s-0.2 2.5-0.4 2.5-1.2 0.3-2.2 0.7c-1.1 0.4-1.5 0.3-1-0.5 0.3-0.6 0.2-1.3-0.4-1.7-0.5-0.3-1 0-1 0.7 0 0.8-0.5 0.6-1.1-0.5-0.5-0.9-1.5-1.7-2-1.7-0.6 0-0.8 0.4-0.5 0.9s-0.1 1.2-1 1.5c-0.8 0.3-1.2 0.2-0.9-0.4s-0.3-1-1.4-1c-2.3 0-2.8 1.9-0.9 3.8 1.6 1.6 3.9 1.5 3.5-0.1-0.2-1.3 3.4-1.1 4.3 0.2 0.8 1.2 12.1 0.4 13.3-0.8 0.8-0.8 0.6-1.1-0.8-1.1-1.5 0-1.7-0.2-0.6-1.3 1-1 1.5-0.8 2.7 0.7 0.8 1.1 1.4 2.6 1.4 3.3s0.3 1.3 0.8 1.4c0.4 0 2 0.2 3.7 0.4 1.9 0.3 2.5 0.1 1.6-0.4-0.7-0.5-1-1.4-0.7-2 0.4-0.6 0.2-1.1-0.4-1.1s-1.3 0.7-1.6 1.5c-0.4 0.8-1 1.2-1.6 0.9-0.5-0.3-0.1-1.2 0.9-2 1.7-1.4 1.7-1.5-0.4-0.9-1.7 0.5-2.3 0.2-2.3-0.9 0-1.9 0-1.9 4.1-0.2 2.2 0.9 4.1 1.1 5.6 0.5 1.7-0.6 2.5-0.4 3.1 0.8 0.7 1.2 1.6 1.4 3.8 0.8 2.3-0.7 2.5-0.9 1-1.3-1.5-0.3-1.6-0.6-0.5-1.3 1-0.6 0.3-0.9-2.1-0.9-2 0-4.1-0.5-4.8-1.2-0.9-0.9-1.2-0.9-1.2 0.4 0 1.9-4.6 1.3-7.2-0.9-1.6-1.5-7.9-1-6.4 0.4 0.7 0.7-2.4 3.2-4.1 3.3-0.9 0-1.3-1.5-1.3-4.5 0-3.3 0.4-4.5 1.5-4.5 0.8 0 1.5 0.4 1.5 0.9s0.9 1.1 2 1.4 2 0.1 2-0.5c0-0.5 0.5-0.6 1-0.3 1.6 1 1.2-1.1-0.5-2.5-0.8-0.6-1.9-0.9-2.5-0.5-0.5 0.3-1 0.1-1-0.4 0-0.6 0.7-1.1 1.6-1.1 0.8 0 1.2-0.4 0.9-1-0.3-0.5-2.2-0.1-4.6 1.2-2.2 1.1-4.2 1.8-4.5 1.5s1.8-1.7 4.7-3.1c4-1.9 4.9-2.7 3.6-3.2-1-0.3-2.7-0.4-3.8-0.1-1.7 0.5-2 0.2-1.6-1.4 0.7-2.4-0.9-2.4-5 0.1z" />
  <path
     id="path100"
     d="m38 62c1.3 2.4 1.3 6.7 0 7.5-0.5 0.3-1 1.4-1 2.3 0 1.3 0.2 1.3 1.5-0.4 1.4-1.8 1.4-1.8 1.5 0.8 0 1.6 0.5 2.8 1.1 2.8 0.7 0 0.9-1.1 0.6-2.8l-0.6-2.7 1.2 2.7c0.6 1.6 1.5 2.8 2 2.8 0.4 0 0.6 0.4 0.2 0.9-0.3 0.5 0 1.3 0.6 1.7 0.8 0.4 0.9 0.3 0.5-0.4s-0.2-1.2 0.3-1.2c0.6 0 1.1 0.4 1.1 1 0 0.5 1.3 0.7 2.9 0.4 2-0.4 3-0.2 3.4 1 0.6 1.5 0.9 1.5 3.7 0.1 2.3-1.2 3-1.2 3-0.3 0.1 0.8 0.7 0.5 1.7-0.7 1.5-2 1.5-2 1.1 0.1-0.3 1.3 0 2.1 0.8 2.1s1.4-0.3 1.4-0.6 1.4-0.7 3-0.8c1.7-0.1 2.8 0.1 2.6 0.6-0.3 0.4 0.6 0.6 2.1 0.3 1.8-0.3 2.4-0.1 1.9 0.7-0.4 0.6-0.1 1.1 0.9 1.1 0.9 0 1.4-0.4 1.1-0.8-0.3-0.5 0.8-0.6 2.4-0.4 1.7 0.2 2.7 0.8 2.4 1.3s0 0.9 0.5 0.9c0.6 0 1.1-0.5 1.1-1 0-0.6 0.9-1.9 2-3 1.2-1.2 1.8-2.6 1.4-3.1-0.4-0.8-0.9-0.7-1.5 0.2-0.5 0.8-0.9 0.9-0.9 0.4 0-0.6-0.4-0.4-0.9 0.4s-2.4 1.5-4.2 1.6c-4.4 0.2-9.1-1.4-8.2-2.8 0.4-0.6 0-0.8-0.9-0.4-0.9 0.3-2.1 0-2.8-0.6-1-0.9-1.1-0.7-0.5 1.2 0.6 2.1 0.5 2.3-1.1 1.6-4.4-1.7-7-2.2-8.9-1.4-1.1 0.4-1.4 0.8-0.7 0.8 0.7 0.1 1 0.6 0.6 1.2-0.4 0.7-1.3 0.1-2.3-1.4-1.5-2.3-1.8-2.4-3.6-1.1-1.7 1.2-2 1.2-2.8-0.1-0.4-0.8-0.6-1.9-0.3-2.3 0.2-0.4-0.5-0.9-1.6-0.9-1.2-0.1-2.8-0.9-3.6-1.7-1.3-1.2-1.2-1.5 0.7-2.5 1.2-0.7 2.6-0.9 3.1-0.6 0.6 0.3 1-0.1 1-0.9 0-1.9-0.5-2-3-0.6-1.6 0.9-1.9 0.8-1.3-0.7 0.3-1 0.9-2.3 1.4-2.8 0.4-0.6-0.8-1.1-3.2-1.1-3.5-0.2-3.8 0-2.9 1.6z" />
  <path
     id="path106"
     d="m88 74c0 0.5 0.5 1 1 1 0.6 0 1-0.5 1-1 0-0.6-0.4-1-1-1-0.5 0-1 0.4-1 1z" />
  <path
     id="path108"
     d="m89.3 76c-2.8 1.2-3 2.4-0.3 1.7 1.3-0.3 2.5 0.2 3.5 1.6 1.8 2.6 2.5 2 1.8-1.6-0.6-2.9-1.4-3.1-5-1.7z" />
  <path
     id="path110"
     d="m96.8 76.1c-2.9 1.6-2.1 2.7 1.9 2.6 2-0.1 3.8 0.4 4.1 1.1 0.2 0.7 1 1.2 1.8 1.2 0.9 0 1.2-0.5 0.8-1.2-0.5-0.7-0.3-0.8 0.6-0.3 0.7 0.4 1.6 0.2 2-0.6 0.7-1 1.2-1 2.3-0.1 0.7 0.7 1.8 0.8 2.2 0.4 0.5-0.4 0.5-0.2 0.2 0.4-0.4 0.7 0 1.4 0.8 1.7 1 0.4 1.2 0.1 0.8-1-0.5-1.3-0.3-1.3 1.4-0.5 1.1 0.6 2.3 0.8 2.7 0.4 0.4-0.3 0.4 0.2 0 1.3-0.5 1.1-0.9 1.4-1.2 0.7-0.2-0.8-0.8-0.8-1.8 0.3-1.1 1.1-2.1 1.2-3.3 0.5-1-0.5-2.1-0.7-2.4-0.3-1.2 1.1-9.7 1-9.7-0.1 0-0.6-0.4-0.5-0.9 0.2-0.9 1.5-1.7 1.5-4.5 0-1-0.5-1.6-0.6-1.3-0.1 0.8 1.3-12.6 1.2-13.5-0.1-0.6-0.8-1-0.8-1.5-0.1-1.1 1.6-5.3 1.6-5.3 0.1 0-0.8-1-1.1-3-0.8-1.6 0.2-3 0.8-3 1.2s-1.2 0.5-2.6 0.2c-1.7-0.3-2.2-0.7-1.3-1.2 0.7-0.5-0.4-0.8-2.6-0.7-2.1 0.1-3.3 0.3-2.6 0.5 0.6 0.2 0.8 0.9 0.5 1.4-0.4 0.6-0.2 0.8 0.4 0.4 0.5-0.3 1.2-0.2 1.4 0.3 0.1 0.6 3.3 1.1 6.9 1.3 3.7 0.2 6.5 0.6 6.2 1-0.5 1 2.1 1.1 3 0.1 0.4-0.3 16.1-0.8 34.8-0.9 25-0.2 34.4-0.6 35.3-1.4 0.8-0.9 0.8-1.4-0.1-1.7-0.7-0.2-0.9-1.1-0.6-1.9s0-1.4-0.6-1.4-1.1 0.4-1.1 0.8c0 0.5-0.7 0.9-1.5 0.9s-1.5-0.7-1.5-1.5c0-1.1-0.3-1.2-1.4-0.3s-1.5 0.8-2-0.5c-0.6-1.6-0.8-1.6-2.5 0s-1.9 1.6-2.5-0.6c-0.5-1.9-0.8-2-1.5-0.8-0.5 0.8-0.8 1.7-0.5 2.1 0.2 0.4 0 1-0.6 1.4-0.5 0.3-1-0.1-1-0.9 0-2.2-1.7-2-2.3 0.1-0.4 1.4-0.5 1.3-0.6-0.4-0.1-3-1.8-3.8-3.1-1.3-1.3 2.4-3 2.6-3 0.4 0-1.1-0.6-1.4-2.1-0.9-1.4 0.5-1.9 0.3-1.5-0.3 0.3-0.6 0.2-1.3-0.4-1.7-0.5-0.3-1-0.3-1 0.2 0 1.2-5.3 1.3-6.7 0.1-0.9-0.7-1.3-0.7-1.3 0 0 1.2-4.8 1.3-5.6 0.1-0.7-1.2-2.5-1.1-4.6 0.2zm40.2 5.5c0 0.8-0.5 1.2-1 0.9-0.6-0.4-0.8-1.1-0.5-1.6 0.9-1.4 1.5-1.1 1.5 0.7zm-14 1.4c0 0.5-0.9 1-2.1 1-1.1 0-1.7-0.5-1.4-1 0.3-0.6 1.3-1 2.1-1s1.4 0.4 1.4 1z" />
  <path
     id="path112"
     d="m48.6 78.9c-0.4 0.5 0.3 0.7 1.4 0.4 2.3-0.6 2.6-1.3 0.6-1.3-0.8 0-1.7 0.4-2 0.9z" />
  <path
     id="path114"
     d="m46 80.1c0 0.5-0.4 0.8-0.9 0.5s-1.5 0.1-2.2 1c-0.8 1-2.1 1.3-3.7 0.9-1.5-0.4-2.1-0.2-1.7 0.5 0.8 1.2 5.5 1.3 5.5 0.1 0-1.1 1.9-0.9 3.8 0.2 1.1 0.8 3.9 0.9 8.5 0.5 2.3-0.2 1.1-1.3-1.6-1.4-7.3-0.3-7.6-0.4-7.1-1.9 0.4-0.8 0.3-1.5 0-1.5s-0.6 0.5-0.6 1.1z" />
  <path
     id="path116"
     d="m85 80.5c0 0.8 0.7 1.5 1.6 1.5 1.4 0 1.4-0.3 0.4-1.5-0.7-0.8-1.4-1.5-1.6-1.5s-0.4 0.7-0.4 1.5z" />
  <path
     id="path118"
     d="m89 80.5c0.7 0.9 1.5 1.3 1.7 1.1 0.7-0.7-0.7-2.6-1.9-2.6-0.6 0-0.6 0.6 0.2 1.5z" />
  <path
     id="path122"
     d="m33.8 82.7c0.7 0.3 1.6 0.2 1.9-0.1 0.4-0.3-0.2-0.6-1.3-0.5-1.1 0-1.4 0.3-0.6 0.6z" />
  <path
     id="path124"
     d="m158.8 82.5c-0.2 0.2-1.9 0.6-3.9 0.9-1.9 0.3-4.6 1-6 1.5-2.3 0.9 7.3 0.7 16-0.4 1.8-0.2 4.8 0.2 6.7 1 2.6 1.1 6 1.2 17 0.4 9.1-0.6 14.1-0.6 14.8 0.1 0.6 0.6 1.7 1 2.5 1 1.1 0 1.2-0.3 0.4-0.8-1.1-0.7 4.2-1.4 11.4-1.5 1.8 0 3-0.4 2.7-0.8-0.3-0.5-12.9-0.8-28.2-0.8-15.2 0.1-28.9-0.1-30.4-0.4-1.5-0.2-2.9-0.3-3-0.2zm18.2 2.5c-1.8 1.2-3 1.3-3 0.2 0-0.4 1-0.9 2.2-0.9 1.8-0.2 2 0 0.8 0.7z" />
  <path
     id="path128"
     d="m7.3 83.7c-0.7 0.3-1.3 1.2-1.3 2.1 0 1.4 0.1 1.4 1.3-0.1 1.1-1.5 1.5-1.5 4.1-0.2 2.7 1.4 5.5 2.1 4.5 1-1.2-1.1-7.5-3.2-8.6-2.8z" />
  <path
     id="path130"
     d="m18.4 86.2c0.3 1 0 1.8-0.7 1.9-0.7 0-4.7 0.1-8.9 0.2-4.3 0.1-7.9 0.6-8 1.2-0.2 0.5 0.7 1.1 2 1.3 1.2 0.2 2.2 0 2.2-0.5 0-0.4 4.6-0.9 10.3-0.9 13.7-0.2 53.8-1.7 53.5-1.9-0.3-0.3-23-1.5-34.8-2-3-0.1-6.6 0.2-8 0.6-1.7 0.5-0.4 0.7 3.7 0.6 3.4-0.1 6.5 0.1 6.7 0.4 0.3 0.3-2.6 0.6-6.4 0.7-3.9 0.1-7-0.2-7-0.7s-0.7-1.2-1.6-1.5c-1.4-0.5-1.5-0.4-0.4 0.9 0.8 0.9 0.9 1.5 0.2 1.5-0.6 0-1.6-0.8-2.2-1.8-1.1-1.6-1.1-1.6-0.6 0z" />
</svg>
